<svg width="459" height="210" viewBox="0 0 459 210" fill="none" xmlns="http://www.w3.org/2000/svg">
<path opacity="0.28" d="M452.538 209.05H6.39568C3.09385 209.05 0.452393 206.409 0.452393 203.107C0.452393 199.805 3.09385 197.163 6.39568 197.163H452.604C455.906 197.163 458.548 199.805 458.548 203.107C458.482 206.409 455.84 209.05 452.538 209.05Z" fill="#848484"/>
<path d="M433.19 148.032C433.19 123.467 414.567 103.259 390.464 100.948V95.4012H376.002V201.522H390.464V195.116C414.501 192.805 433.19 172.598 433.19 148.032ZM390.398 179.862V116.269C405.851 118.514 418.001 131.919 418.001 148.098C418.001 164.211 405.851 177.617 390.398 179.862Z" fill="#F09F54"/>
<path opacity="0.29" d="M390.398 100.948V95.4012H375.936V201.522H390.398V195.116C414.501 192.805 433.124 172.664 433.124 148.032C433.19 123.467 414.501 103.259 390.398 100.948ZM390.398 190.23V195.711H376.861V100.222H390.398V105.835C411.596 107.882 428.699 125.976 428.699 148.032C428.765 170.088 411.662 188.182 390.398 190.23Z" fill="#F09F54"/>
<path d="M433.19 148.032C433.19 123.467 414.567 103.259 390.464 100.948V95.4012H376.002V201.522H390.464V195.116C414.501 192.805 433.19 172.598 433.19 148.032ZM390.398 179.862V116.269C405.851 118.514 418.001 131.919 418.001 148.098C418.001 164.211 405.851 177.617 390.398 179.862Z" stroke="#444E59" stroke-width="4" stroke-miterlimit="10" stroke-linecap="round" stroke-linejoin="round"/>
<path d="M381.747 190.89H375.936" stroke="#444E59" stroke-width="3" stroke-miterlimit="10" stroke-linecap="round" stroke-linejoin="round"/>
<path d="M381.747 180.324H375.936" stroke="#444E59" stroke-width="3" stroke-miterlimit="10" stroke-linecap="round" stroke-linejoin="round"/>
<path d="M381.747 169.692H375.936" stroke="#444E59" stroke-width="3" stroke-miterlimit="10" stroke-linecap="round" stroke-linejoin="round"/>
<path d="M381.747 159.06H375.936" stroke="#444E59" stroke-width="3" stroke-miterlimit="10" stroke-linecap="round" stroke-linejoin="round"/>
<path d="M381.747 148.495H375.936" stroke="#444E59" stroke-width="3" stroke-miterlimit="10" stroke-linecap="round" stroke-linejoin="round"/>
<path d="M381.747 137.863H375.936" stroke="#444E59" stroke-width="3" stroke-miterlimit="10" stroke-linecap="round" stroke-linejoin="round"/>
<path d="M381.747 127.231H375.936" stroke="#444E59" stroke-width="3" stroke-miterlimit="10" stroke-linecap="round" stroke-linejoin="round"/>
<path d="M381.747 116.599H375.936" stroke="#444E59" stroke-width="3" stroke-miterlimit="10" stroke-linecap="round" stroke-linejoin="round"/>
<path d="M381.747 106.033H375.936" stroke="#444E59" stroke-width="3" stroke-miterlimit="10" stroke-linecap="round" stroke-linejoin="round"/>
<path d="M365.766 41.7134H343.908V201.258H365.766V41.7134Z" fill="#F09F54"/>
<path d="M365.766 41.7134H343.908V201.258H365.766V41.7134Z" fill="#F09F54"/>
<path opacity="0.29" d="M365.766 41.7134H356.257V201.258H365.766V41.7134Z" fill="#F09F54"/>
<path d="M365.766 41.7134H343.908V201.258H365.766V41.7134Z" stroke="#444E59" stroke-width="4" stroke-miterlimit="10" stroke-linecap="round" stroke-linejoin="round"/>
<path d="M351.503 185.145H343.908" stroke="#444E59" stroke-width="3" stroke-miterlimit="10" stroke-linecap="round" stroke-linejoin="round"/>
<path d="M348.597 192.739H343.908" stroke="#444E59" stroke-width="3" stroke-miterlimit="10" stroke-linecap="round" stroke-linejoin="round"/>
<path d="M351.503 169.956H343.908" stroke="#444E59" stroke-width="3" stroke-miterlimit="10" stroke-linecap="round" stroke-linejoin="round"/>
<path d="M348.597 177.551H343.908" stroke="#444E59" stroke-width="3" stroke-miterlimit="10" stroke-linecap="round" stroke-linejoin="round"/>
<path d="M351.503 154.768H343.908" stroke="#444E59" stroke-width="3" stroke-miterlimit="10" stroke-linecap="round" stroke-linejoin="round"/>
<path d="M348.597 162.362H343.908" stroke="#444E59" stroke-width="3" stroke-miterlimit="10" stroke-linecap="round" stroke-linejoin="round"/>
<path d="M351.503 139.514H343.908" stroke="#444E59" stroke-width="3" stroke-miterlimit="10" stroke-linecap="round" stroke-linejoin="round"/>
<path d="M348.597 147.108H343.908" stroke="#444E59" stroke-width="3" stroke-miterlimit="10" stroke-linecap="round" stroke-linejoin="round"/>
<path d="M351.503 124.325H343.908" stroke="#444E59" stroke-width="3" stroke-miterlimit="10" stroke-linecap="round" stroke-linejoin="round"/>
<path d="M348.597 131.919H343.908" stroke="#444E59" stroke-width="3" stroke-miterlimit="10" stroke-linecap="round" stroke-linejoin="round"/>
<path d="M351.503 109.137H343.908" stroke="#444E59" stroke-width="3" stroke-miterlimit="10" stroke-linecap="round" stroke-linejoin="round"/>
<path d="M348.597 116.731H343.908" stroke="#444E59" stroke-width="3" stroke-miterlimit="10" stroke-linecap="round" stroke-linejoin="round"/>
<path d="M351.503 93.9483H343.908" stroke="#444E59" stroke-width="3" stroke-miterlimit="10" stroke-linecap="round" stroke-linejoin="round"/>
<path d="M348.597 101.543H343.908" stroke="#444E59" stroke-width="3" stroke-miterlimit="10" stroke-linecap="round" stroke-linejoin="round"/>
<path d="M351.503 78.7599H343.908" stroke="#444E59" stroke-width="3" stroke-miterlimit="10" stroke-linecap="round" stroke-linejoin="round"/>
<path d="M348.597 86.3541H343.908" stroke="#444E59" stroke-width="3" stroke-miterlimit="10" stroke-linecap="round" stroke-linejoin="round"/>
<path d="M351.503 63.5715H343.908" stroke="#444E59" stroke-width="3" stroke-miterlimit="10" stroke-linecap="round" stroke-linejoin="round"/>
<path d="M348.597 71.1657H343.908" stroke="#444E59" stroke-width="3" stroke-miterlimit="10" stroke-linecap="round" stroke-linejoin="round"/>
<path d="M351.503 48.3831H343.908" stroke="#444E59" stroke-width="3" stroke-miterlimit="10" stroke-linecap="round" stroke-linejoin="round"/>
<path d="M348.597 55.9773H343.908" stroke="#444E59" stroke-width="3" stroke-miterlimit="10" stroke-linecap="round" stroke-linejoin="round"/>
<path d="M312.013 80.2787H303.494V102.797H312.013V80.2787Z" fill="#848484"/>
<path opacity="0.25" d="M306.664 80.2787H303.494V102.797H306.664V80.2787Z" fill="#848484"/>
<path d="M312.013 80.2787H303.494V102.797H312.013V80.2787Z" stroke="#444E59" stroke-width="4" stroke-miterlimit="10" stroke-linecap="round" stroke-linejoin="round"/>
<path d="M309.701 102.863H305.805V113.759H309.701V102.863Z" fill="white"/>
<path d="M309.701 102.863H305.805V113.759H309.701V102.863Z" stroke="#444E59" stroke-width="4" stroke-miterlimit="10" stroke-linecap="round" stroke-linejoin="round"/>
<path d="M301.183 123.467L281.372 201.192L311.484 124.523L301.183 123.467Z" fill="white"/>
<path d="M301.183 123.467L281.372 201.192L311.484 124.523L301.183 123.467Z" stroke="#444E59" stroke-width="4" stroke-miterlimit="10" stroke-linecap="round" stroke-linejoin="round"/>
<path d="M314.39 123.467L334.201 201.192L304.154 124.523L314.39 123.467Z" fill="white"/>
<path d="M314.39 123.467L334.201 201.192L304.154 124.523L314.39 123.467Z" stroke="#444E59" stroke-width="4" stroke-miterlimit="10" stroke-linecap="round" stroke-linejoin="round"/>
<path d="M307.786 138.721C315.08 138.721 320.994 132.808 320.994 125.514C320.994 118.22 315.08 112.306 307.786 112.306C300.492 112.306 294.579 118.22 294.579 125.514C294.579 132.808 300.492 138.721 307.786 138.721Z" fill="#71A850"/>
<path opacity="0.4" d="M298.277 125.514C298.277 118.844 303.23 113.363 309.635 112.439C309.041 112.373 308.447 112.306 307.786 112.306C300.522 112.306 294.579 118.25 294.579 125.514C294.579 132.778 300.522 138.721 307.786 138.721C308.381 138.721 309.041 138.655 309.635 138.589C303.23 137.664 298.277 132.183 298.277 125.514Z" fill="#71A850"/>
<path d="M307.786 138.721C315.08 138.721 320.994 132.808 320.994 125.514C320.994 118.22 315.08 112.306 307.786 112.306C300.492 112.306 294.579 118.22 294.579 125.514C294.579 132.808 300.492 138.721 307.786 138.721Z" stroke="#444E59" stroke-width="4" stroke-miterlimit="10" stroke-linecap="round" stroke-linejoin="round"/>
<path d="M307.786 130.004C310.266 130.004 312.277 127.994 312.277 125.514C312.277 123.034 310.266 121.023 307.786 121.023C305.306 121.023 303.296 123.034 303.296 125.514C303.296 127.994 305.306 130.004 307.786 130.004Z" fill="#444E59"/>
<path d="M307.786 130.004C310.266 130.004 312.277 127.994 312.277 125.514C312.277 123.034 310.266 121.023 307.786 121.023C305.306 121.023 303.296 123.034 303.296 125.514C303.296 127.994 305.306 130.004 307.786 130.004Z" stroke="#444E59" stroke-width="4" stroke-miterlimit="10" stroke-linecap="round" stroke-linejoin="round"/>
<path d="M260.108 201.06H172.94C167.855 201.06 163.695 196.899 163.695 191.814V12.1951C163.695 7.11031 167.855 2.95001 172.94 2.95001H260.108C265.193 2.95001 269.353 7.11031 269.353 12.1951V191.814C269.353 196.899 265.193 201.06 260.108 201.06Z" fill="#848484"/>
<path opacity="0.28" d="M260.108 2.95001H254.561C259.646 2.95001 263.806 7.11031 263.806 12.1951V191.814C263.806 196.899 259.646 201.06 254.561 201.06H260.174C265.259 201.06 269.419 196.899 269.419 191.814V12.1951C269.353 7.04428 265.193 2.95001 260.108 2.95001Z" fill="#848484"/>
<path opacity="0.48" d="M169.176 191.814V12.1951C169.176 7.11031 173.336 2.95001 178.421 2.95001H172.94C167.855 2.95001 163.695 7.11031 163.695 12.1951V191.814C163.695 196.899 167.855 201.06 172.94 201.06H178.421C173.336 201.06 169.176 196.899 169.176 191.814Z" fill="#848484"/>
<path d="M260.108 201.06H172.94C167.855 201.06 163.695 196.899 163.695 191.814V12.1951C163.695 7.11031 167.855 2.95001 172.94 2.95001H260.108C265.193 2.95001 269.353 7.11031 269.353 12.1951V191.814C269.353 196.899 265.193 201.06 260.108 201.06Z" stroke="#444E59" stroke-width="4" stroke-miterlimit="10" stroke-linecap="round" stroke-linejoin="round"/>
<path d="M269.366 175.628V27.7057L163.707 27.7057L163.707 175.628L269.366 175.628Z" fill="#E9FBFF"/>
<path d="M268.825 75.392H260.57C256.08 75.392 252.448 71.76 252.448 67.2696V47.1284C252.448 42.6379 256.08 39.0059 260.57 39.0059H268.825V75.392Z" fill="#C9C9C9"/>
<path d="M169.77 157.013H163.695V92.7597H169.77C174.326 92.7597 178.025 96.4577 178.025 101.014V148.759C177.958 153.315 174.326 157.013 169.77 157.013Z" fill="#C9C9C9"/>
<path d="M269.366 175.628V27.7057L163.707 27.7057L163.707 175.628L269.366 175.628Z" stroke="#444E59" stroke-width="4" stroke-miterlimit="10" stroke-linecap="round" stroke-linejoin="round"/>
<path d="M231.052 16.1573H235.674" stroke="#444E59" stroke-width="5" stroke-miterlimit="10" stroke-linecap="round" stroke-linejoin="round"/>
<path d="M197.373 16.1573H223.788" stroke="#444E59" stroke-width="5" stroke-miterlimit="10" stroke-linecap="round" stroke-linejoin="round"/>
<path opacity="0.29" d="M216.524 194.06C220.536 194.06 223.788 190.807 223.788 186.796C223.788 182.784 220.536 179.532 216.524 179.532C212.512 179.532 209.26 182.784 209.26 186.796C209.26 190.807 212.512 194.06 216.524 194.06Z" fill="#848484"/>
<path d="M216.524 192.343C219.587 192.343 222.071 189.859 222.071 186.796C222.071 183.732 219.587 181.249 216.524 181.249C213.46 181.249 210.977 183.732 210.977 186.796C210.977 189.859 213.46 192.343 216.524 192.343Z" fill="#444E59"/>
<g opacity="0.3">
<path d="M192.421 157.938H181.855C178.949 157.938 176.572 155.56 176.572 152.655V142.089C176.572 139.183 178.949 136.806 181.855 136.806H192.421C195.326 136.806 197.703 139.183 197.703 142.089V152.655C197.703 155.56 195.326 157.938 192.421 157.938Z" stroke="#444E59" stroke-width="2" stroke-linecap="round" stroke-linejoin="round" stroke-dasharray="4.08 4.08"/>
<path d="M250.863 157.938H240.297C237.391 157.938 235.014 155.56 235.014 152.655V142.089C235.014 139.183 237.391 136.806 240.297 136.806H250.863C253.768 136.806 256.146 139.183 256.146 142.089V152.655C256.146 155.56 253.768 157.938 250.863 157.938Z" stroke="#444E59" stroke-width="2" stroke-linecap="round" stroke-linejoin="round" stroke-dasharray="4.08 4.08"/>
<path d="M221.807 157.938H211.241C208.335 157.938 205.958 155.56 205.958 152.655V142.089C205.958 139.183 208.335 136.806 211.241 136.806H221.807C224.712 136.806 227.09 139.183 227.09 142.089V152.655C227.09 155.56 224.712 157.938 221.807 157.938Z" stroke="#444E59" stroke-width="2" stroke-linecap="round" stroke-linejoin="round" stroke-dasharray="4.08 4.08"/>
<path d="M192.421 126.24H181.855C178.949 126.24 176.572 123.863 176.572 120.957V110.391C176.572 107.486 178.949 105.108 181.855 105.108H192.421C195.326 105.108 197.703 107.486 197.703 110.391V120.957C197.703 123.863 195.326 126.24 192.421 126.24Z" stroke="#444E59" stroke-width="2" stroke-linecap="round" stroke-linejoin="round" stroke-dasharray="4.08 4.08"/>
<path d="M250.863 126.24H240.297C237.391 126.24 235.014 123.863 235.014 120.957V110.391C235.014 107.486 237.391 105.108 240.297 105.108H250.863C253.768 105.108 256.146 107.486 256.146 110.391V120.957C256.146 123.863 253.768 126.24 250.863 126.24Z" stroke="#444E59" stroke-width="2" stroke-linecap="round" stroke-linejoin="round" stroke-dasharray="4.08 4.08"/>
<path d="M221.807 126.24H211.241C208.335 126.24 205.958 123.863 205.958 120.957V110.391C205.958 107.486 208.335 105.108 211.241 105.108H221.807C224.712 105.108 227.09 107.486 227.09 110.391V120.957C227.09 123.863 224.712 126.24 221.807 126.24Z" stroke="#444E59" stroke-width="2" stroke-linecap="round" stroke-linejoin="round" stroke-dasharray="4.08 4.08"/>
<path d="M192.421 94.5427H181.855C178.949 94.5427 176.572 92.1654 176.572 89.2597V78.6939C176.572 75.7883 178.949 73.411 181.855 73.411H192.421C195.326 73.411 197.703 75.7883 197.703 78.6939V89.2597C197.703 92.1654 195.326 94.5427 192.421 94.5427Z" stroke="#444E59" stroke-width="2" stroke-linecap="round" stroke-linejoin="round" stroke-dasharray="4.08 4.08"/>
<path d="M250.863 94.5427H240.297C237.391 94.5427 235.014 92.1654 235.014 89.2597V78.6939C235.014 75.7883 237.391 73.411 240.297 73.411H250.863C253.768 73.411 256.146 75.7883 256.146 78.6939V89.2597C256.146 92.1654 253.768 94.5427 250.863 94.5427Z" stroke="#444E59" stroke-width="2" stroke-linecap="round" stroke-linejoin="round" stroke-dasharray="4.08 4.08"/>
<path d="M221.807 94.5427H211.241C208.335 94.5427 205.958 92.1654 205.958 89.2597V78.6939C205.958 75.7883 208.335 73.411 211.241 73.411H221.807C224.712 73.411 227.09 75.7883 227.09 78.6939V89.2597C227.09 92.1654 224.712 94.5427 221.807 94.5427Z" stroke="#444E59" stroke-width="2" stroke-linecap="round" stroke-linejoin="round" stroke-dasharray="4.08 4.08"/>
<path d="M192.421 62.8451H181.855C178.949 62.8451 176.572 60.4678 176.572 57.5622V46.9964C176.572 44.0908 178.949 41.7134 181.855 41.7134H192.421C195.326 41.7134 197.703 44.0908 197.703 46.9964V57.5622C197.703 60.4678 195.326 62.8451 192.421 62.8451Z" stroke="#444E59" stroke-width="2" stroke-linecap="round" stroke-linejoin="round" stroke-dasharray="4.08 4.08"/>
<path d="M250.863 62.8451H240.297C237.391 62.8451 235.014 60.4678 235.014 57.5622V46.9964C235.014 44.0908 237.391 41.7134 240.297 41.7134H250.863C253.768 41.7134 256.146 44.0908 256.146 46.9964V57.5622C256.146 60.4678 253.768 62.8451 250.863 62.8451Z" stroke="#444E59" stroke-width="2" stroke-linecap="round" stroke-linejoin="round" stroke-dasharray="4.08 4.08"/>
<path d="M221.807 62.8451H211.241C208.335 62.8451 205.958 60.4678 205.958 57.5622V46.9964C205.958 44.0908 208.335 41.7134 211.241 41.7134H221.807C224.712 41.7134 227.09 44.0908 227.09 46.9964V57.5622C227.09 60.4678 224.712 62.8451 221.807 62.8451Z" stroke="#444E59" stroke-width="2" stroke-linecap="round" stroke-linejoin="round" stroke-dasharray="4.08 4.08"/>
</g>
<path d="M192.421 157.938H181.855C178.949 157.938 176.572 155.56 176.572 152.655V142.089C176.572 139.183 178.949 136.806 181.855 136.806H192.421C195.326 136.806 197.703 139.183 197.703 142.089V152.655C197.703 155.56 195.326 157.938 192.421 157.938Z" fill="#71A850"/>
<path opacity="0.52" d="M192.421 136.806H181.855C179.742 136.806 177.893 138.061 177.1 139.844L197.703 143.542V142.089C197.703 139.183 195.326 136.806 192.421 136.806Z" fill="#5F8C42"/>
<path d="M192.421 157.938H181.855C178.949 157.938 176.572 155.56 176.572 152.655V142.089C176.572 139.183 178.949 136.806 181.855 136.806H192.421C195.326 136.806 197.703 139.183 197.703 142.089V152.655C197.703 155.56 195.326 157.938 192.421 157.938Z" stroke="#444E59" stroke-width="4" stroke-miterlimit="10" stroke-linecap="round" stroke-linejoin="round"/>
<path d="M221.807 157.938H211.241C208.335 157.938 205.958 155.56 205.958 152.655V142.089C205.958 139.183 208.335 136.806 211.241 136.806H221.807C224.712 136.806 227.09 139.183 227.09 142.089V152.655C227.09 155.56 224.712 157.938 221.807 157.938Z" fill="#F09F54"/>
<path opacity="0.52" d="M221.807 136.806H211.241C209.128 136.806 207.279 138.061 206.486 139.844L227.09 143.542V142.089C227.09 139.183 224.712 136.806 221.807 136.806Z" fill="#D38444"/>
<path d="M221.807 157.938H211.241C208.335 157.938 205.958 155.56 205.958 152.655V142.089C205.958 139.183 208.335 136.806 211.241 136.806H221.807C224.712 136.806 227.09 139.183 227.09 142.089V152.655C227.09 155.56 224.712 157.938 221.807 157.938Z" stroke="#444E59" stroke-width="4" stroke-miterlimit="10" stroke-linecap="round" stroke-linejoin="round"/>
<path d="M250.863 126.24H240.297C237.391 126.24 235.014 123.863 235.014 120.957V110.391C235.014 107.486 237.391 105.109 240.297 105.109H250.863C253.769 105.109 256.146 107.486 256.146 110.391V120.957C256.146 123.863 253.769 126.24 250.863 126.24Z" fill="#2FA9ED"/>
<path opacity="0.52" d="M250.863 105.109H240.297C238.184 105.109 236.335 106.363 235.542 108.146L256.146 111.844V110.391C256.146 107.486 253.769 105.109 250.863 105.109Z" fill="#288FBC"/>
<path d="M250.863 126.24H240.297C237.391 126.24 235.014 123.863 235.014 120.957V110.391C235.014 107.486 237.391 105.109 240.297 105.109H250.863C253.769 105.109 256.146 107.486 256.146 110.391V120.957C256.146 123.863 253.769 126.24 250.863 126.24Z" stroke="#444E59" stroke-width="4" stroke-miterlimit="10" stroke-linecap="round" stroke-linejoin="round"/>
<path d="M221.807 94.5427H211.241C208.335 94.5427 205.958 92.1654 205.958 89.2597V78.6939C205.958 75.7883 208.335 73.411 211.241 73.411H221.807C224.712 73.411 227.09 75.7883 227.09 78.6939V89.2597C227.09 92.1654 224.712 94.5427 221.807 94.5427Z" fill="#E7534E"/>
<path opacity="0.52" d="M221.807 73.411H211.241C209.128 73.411 207.279 74.6657 206.486 76.4487L227.09 80.1467V78.6939C227.09 75.7883 224.712 73.411 221.807 73.411Z" fill="#BF4040"/>
<path d="M221.807 94.5427H211.241C208.335 94.5427 205.958 92.1654 205.958 89.2597V78.6939C205.958 75.7883 208.335 73.411 211.241 73.411H221.807C224.712 73.411 227.09 75.7883 227.09 78.6939V89.2597C227.09 92.1654 224.712 94.5427 221.807 94.5427Z" stroke="#444E59" stroke-width="4" stroke-miterlimit="10" stroke-linecap="round" stroke-linejoin="round"/>
<path d="M243.863 111.052L249.938 114.552C250.797 115.08 250.797 116.335 249.938 116.797L243.863 120.297C243.005 120.825 241.882 120.165 241.882 119.174V112.174C241.882 111.184 243.005 110.524 243.863 111.052Z" fill="white"/>
<path d="M219.297 143.278H213.75C212.562 143.278 211.637 144.268 211.637 145.391V149.485C211.637 150.674 212.628 151.598 213.75 151.598H213.948L213.486 153.447C213.42 153.579 213.618 153.711 213.75 153.579L216.59 151.598H219.43C220.618 151.598 221.543 150.608 221.543 149.485V145.391C221.477 144.202 220.486 143.278 219.297 143.278Z" fill="white"/>
<path d="M183.043 147.372L185.487 149.815C185.817 150.145 186.345 150.145 186.675 149.815L192.156 144.334" stroke="white" stroke-width="4" stroke-miterlimit="10" stroke-linecap="round" stroke-linejoin="round"/>
<path d="M216.524 88.9296C219.259 88.9296 221.477 86.7121 221.477 83.9768C221.477 81.2415 219.259 79.0241 216.524 79.0241C213.789 79.0241 211.571 81.2415 211.571 83.9768C211.571 86.7121 213.789 88.9296 216.524 88.9296Z" stroke="white" stroke-width="4" stroke-miterlimit="10" stroke-linecap="round" stroke-linejoin="round"/>
<path d="M176.638 58.2225L176.506 48.3171L169.902 48.3831C169.506 47.1284 169.044 46.0058 168.383 44.8832L173.006 40.1285L165.94 33.1947L161.317 37.9493C160.195 37.355 159.006 36.8928 157.751 36.5626L157.685 29.9589L147.78 30.091L147.846 36.6946C146.591 37.0909 145.469 37.5531 144.346 38.2135L139.591 33.5909L132.658 40.6568L137.412 45.2794C136.818 46.402 136.356 47.5907 136.025 48.8454L129.422 48.9114L129.554 58.8169L136.157 58.7509C136.554 60.0055 137.016 61.1282 137.676 62.2508L133.054 67.0054L140.12 73.9393L144.742 69.1846C145.865 69.7789 147.054 70.2412 148.308 70.5714L148.374 77.175L158.28 77.043L158.214 70.4393C159.468 70.0431 160.591 69.5808 161.714 68.9205L166.468 73.543L173.402 66.4771L168.647 61.8546C169.242 60.7319 169.704 59.5433 170.034 58.2886L176.638 58.2225ZM153.195 61.2602C148.903 61.3263 145.469 57.8924 145.403 53.6C145.337 49.3076 148.77 45.8737 153.063 45.8077C157.355 45.7417 160.789 49.1756 160.855 53.4679C160.855 57.7603 157.421 61.1942 153.195 61.2602Z" fill="white"/>
<path d="M176.638 58.2225L176.506 48.3171L169.902 48.3831C169.506 47.1284 169.044 46.0058 168.383 44.8832L173.006 40.1285L165.94 33.1947L161.317 37.9493C160.195 37.355 159.006 36.8928 157.751 36.5626L157.685 29.9589L147.78 30.091L147.846 36.6946C146.591 37.0909 145.469 37.5531 144.346 38.2135L139.591 33.5909L132.658 40.6568L137.412 45.2794C136.818 46.402 136.356 47.5907 136.025 48.8454L129.422 48.9114L129.554 58.8169L136.157 58.7509C136.554 60.0055 137.016 61.1282 137.676 62.2508L133.054 67.0054L140.12 73.9393L144.742 69.1846C145.865 69.7789 147.054 70.2412 148.308 70.5714L148.374 77.175L158.28 77.043L158.214 70.4393C159.468 70.0431 160.591 69.5808 161.714 68.9205L166.468 73.543L173.402 66.4771L168.647 61.8546C169.242 60.7319 169.704 59.5433 170.034 58.2886L176.638 58.2225ZM153.195 61.2602C148.903 61.3263 145.469 57.8924 145.403 53.6C145.337 49.3076 148.77 45.8737 153.063 45.8077C157.355 45.7417 160.789 49.1756 160.855 53.4679C160.855 57.7603 157.421 61.1942 153.195 61.2602Z" fill="#F09F54"/>
<path d="M176.638 58.2225L176.506 48.3171L169.902 48.3831C169.506 47.1284 169.044 46.0058 168.383 44.8832L173.006 40.1285L165.94 33.1947L161.317 37.9493C160.195 37.355 159.006 36.8928 157.751 36.5626L157.685 29.9589L147.78 30.091L147.846 36.6946C146.591 37.0909 145.469 37.5531 144.346 38.2135L139.591 33.5909L132.658 40.6568L137.412 45.2794C136.818 46.402 136.356 47.5907 136.025 48.8454L129.422 48.9114L129.554 58.8169L136.157 58.7509C136.554 60.0055 137.016 61.1282 137.676 62.2508L133.054 67.0054L140.12 73.9393L144.742 69.1846C145.865 69.7789 147.054 70.2412 148.308 70.5714L148.374 77.175L158.28 77.043L158.214 70.4393C159.468 70.0431 160.591 69.5808 161.714 68.9205L166.468 73.543L173.402 66.4771L168.647 61.8546C169.242 60.7319 169.704 59.5433 170.034 58.2886L176.638 58.2225ZM153.195 61.2602C148.903 61.3263 145.469 57.8924 145.403 53.6C145.337 49.3076 148.77 45.8737 153.063 45.8077C157.355 45.7417 160.789 49.1756 160.855 53.4679C160.855 57.7603 157.421 61.1942 153.195 61.2602Z" fill="#F09F54"/>
<g opacity="0.29">
<path d="M174.128 48.3831H176.572V48.3171L174.128 48.3831Z" fill="#F09F54"/>
<path d="M165.544 38.0154L168.119 35.3739L166.006 33.2607L162.572 36.7607C163.629 37.0909 164.619 37.4871 165.544 38.0154Z" fill="#F09F54"/>
<path d="M157.157 45.8077C156.431 45.8077 155.77 45.9397 155.176 46.0718C158.412 46.9963 160.789 49.9019 160.789 53.4019C160.855 56.9679 158.412 60.0055 155.176 60.93C155.836 61.1281 156.629 61.2602 157.355 61.1942C161.648 61.1281 165.015 57.6282 165.015 53.4019C165.015 49.1755 161.449 45.8077 157.157 45.8077Z" fill="#F09F54"/>
<path d="M147.318 36.8928L148.638 38.1474C149.761 37.5531 150.884 37.0248 152.138 36.6286L152.072 30.025L157.751 29.9589V29.8929L147.846 30.025L147.912 36.6286C147.78 36.7607 147.516 36.8267 147.318 36.8928Z" fill="#F09F54"/>
<path d="M152.468 70.5054C151.214 70.1752 150.025 69.7129 148.903 69.1186L147.714 70.3733C147.912 70.4393 148.11 70.5054 148.308 70.5714L148.374 77.1751L152.535 77.109L152.468 70.5054Z" fill="#F09F54"/>
<path d="M133.714 48.8454L140.318 48.7793C140.648 47.5246 141.11 46.336 141.705 45.2134L136.95 40.5908L141.837 35.6381L139.723 33.5249L132.79 40.5908L137.544 45.2134C136.95 46.336 136.488 47.5246 136.157 48.7793L129.554 48.8454L129.686 58.7509L133.846 58.6848L133.714 48.8454Z" fill="#F09F54"/>
<path d="M165.874 68.9205C164.949 69.4488 164.025 69.845 163.034 70.1752L166.468 73.543L168.515 71.4299L165.874 68.9205Z" fill="#F09F54"/>
<path d="M137.28 66.8733L141.903 62.1187C141.308 60.9961 140.78 59.8735 140.384 58.6188L136.223 58.6848C136.62 59.8735 137.082 61.0621 137.676 62.1187L133.054 66.8733L140.12 73.8072L142.167 71.694L137.28 66.8733Z" fill="#F09F54"/>
</g>
<path d="M176.638 58.2225L176.506 48.3171L169.902 48.3831C169.506 47.1284 169.044 46.0058 168.383 44.8832L173.006 40.1285L165.94 33.1947L161.317 37.9493C160.195 37.355 159.006 36.8928 157.751 36.5626L157.685 29.9589L147.78 30.091L147.846 36.6946C146.591 37.0909 145.469 37.5531 144.346 38.2135L139.591 33.5909L132.658 40.6568L137.412 45.2794C136.818 46.402 136.356 47.5907 136.025 48.8454L129.422 48.9114L129.554 58.8169L136.157 58.7509C136.554 60.0055 137.016 61.1282 137.676 62.2508L133.054 67.0054L140.12 73.9393L144.742 69.1846C145.865 69.7789 147.054 70.2412 148.308 70.5714L148.374 77.175L158.28 77.043L158.214 70.4393C159.468 70.0431 160.591 69.5808 161.714 68.9205L166.468 73.543L173.402 66.4771L168.647 61.8546C169.242 60.7319 169.704 59.5433 170.034 58.2886L176.638 58.2225ZM153.195 61.2602C148.903 61.3263 145.469 57.8924 145.403 53.6C145.337 49.3076 148.77 45.8737 153.063 45.8077C157.355 45.7417 160.789 49.1756 160.855 53.4679C160.855 57.7603 157.421 61.1942 153.195 61.2602Z" stroke="#444E59" stroke-width="4" stroke-miterlimit="10" stroke-linecap="round" stroke-linejoin="round"/>
<path d="M135.365 201.06H53.6778C50.9703 201.06 48.7911 198.88 48.7911 196.173V140.306C48.7911 137.598 50.9703 135.419 53.6778 135.419H135.431C138.139 135.419 140.318 137.598 140.318 140.306V196.173C140.252 198.88 138.073 201.06 135.365 201.06Z" fill="#444E59"/>
<path d="M140.252 146.051H48.7911V140.306C48.7911 137.598 50.9703 135.419 53.6778 135.419H135.431C138.139 135.419 140.318 137.598 140.318 140.306V146.051H140.252Z" fill="#BCBCBC"/>
<path d="M135.365 201.06H53.6778C50.9703 201.06 48.7911 198.88 48.7911 196.173V140.306C48.7911 137.598 50.9703 135.419 53.6778 135.419H135.431C138.139 135.419 140.318 137.598 140.318 140.306V196.173C140.252 198.88 138.073 201.06 135.365 201.06Z" stroke="#444E59" stroke-width="4" stroke-miterlimit="10" stroke-linecap="round" stroke-linejoin="round"/>
<path d="M135.365 201.06H53.6778C50.9703 201.06 48.7911 198.88 48.7911 196.173V140.306C48.7911 137.598 50.9703 135.419 53.6778 135.419H135.431C138.139 135.419 140.318 137.598 140.318 140.306V196.173C140.252 198.88 138.073 201.06 135.365 201.06Z" stroke="#444E59" stroke-width="4" stroke-miterlimit="10" stroke-linecap="round" stroke-linejoin="round"/>
<path d="M140.252 146.051H48.7911V140.306C48.7911 137.598 50.9703 135.419 53.6778 135.419H135.431C138.139 135.419 140.318 137.598 140.318 140.306V146.051H140.252Z" stroke="#444E59" stroke-width="4" stroke-miterlimit="10" stroke-linecap="round" stroke-linejoin="round"/>
<path d="M61.4041 192.673H71.7058" stroke="white" stroke-width="4" stroke-miterlimit="10" stroke-linecap="round" stroke-linejoin="round"/>
<path d="M54.14 192.673H54.8664" stroke="white" stroke-width="4" stroke-miterlimit="10" stroke-linecap="round" stroke-linejoin="round"/>
<path d="M61.4041 186.994H87.4885" stroke="white" stroke-width="4" stroke-miterlimit="10" stroke-linecap="round" stroke-linejoin="round"/>
<path d="M54.14 186.994H54.8664" stroke="white" stroke-width="4" stroke-miterlimit="10" stroke-linecap="round" stroke-linejoin="round"/>
<path d="M99.9033 181.249H107.035" stroke="#64BDFF" stroke-width="4" stroke-miterlimit="10" stroke-linecap="round" stroke-linejoin="round"/>
<path d="M80.4886 181.249H93.696" stroke="white" stroke-width="4" stroke-miterlimit="10" stroke-linecap="round" stroke-linejoin="round"/>
<path d="M61.4041 181.249H74.4793" stroke="#FF5F5F" stroke-width="4" stroke-miterlimit="10" stroke-linecap="round" stroke-linejoin="round"/>
<path d="M54.14 181.249H54.8664" stroke="white" stroke-width="4" stroke-miterlimit="10" stroke-linecap="round" stroke-linejoin="round"/>
<path d="M83.3942 175.569H115.224" stroke="white" stroke-width="4" stroke-miterlimit="10" stroke-linecap="round" stroke-linejoin="round"/>
<path d="M61.4041 175.569H78.0453" stroke="#64BDFF" stroke-width="4" stroke-miterlimit="10" stroke-linecap="round" stroke-linejoin="round"/>
<path d="M54.14 175.569H54.8664" stroke="white" stroke-width="4" stroke-miterlimit="10" stroke-linecap="round" stroke-linejoin="round"/>
<path d="M83.3942 169.89H95.2807" stroke="#FF5F5F" stroke-width="4" stroke-miterlimit="10" stroke-linecap="round" stroke-linejoin="round"/>
<path d="M61.4041 169.89H78.0453" stroke="#FFBE78" stroke-width="4" stroke-miterlimit="10" stroke-linecap="round" stroke-linejoin="round"/>
<path d="M54.14 169.89H54.8664" stroke="white" stroke-width="4" stroke-miterlimit="10" stroke-linecap="round" stroke-linejoin="round"/>
<path d="M85.7054 164.211H88.9413" stroke="#64BDFF" stroke-width="4" stroke-miterlimit="10" stroke-linecap="round" stroke-linejoin="round"/>
<path d="M73.1584 164.211H80.4885" stroke="#FF5F5F" stroke-width="4" stroke-miterlimit="10" stroke-linecap="round" stroke-linejoin="round"/>
<path d="M61.4041 164.211H67.4794" stroke="#C383F2" stroke-width="4" stroke-miterlimit="10" stroke-linecap="round" stroke-linejoin="round"/>
<path d="M54.14 164.211H54.8664" stroke="white" stroke-width="4" stroke-miterlimit="10" stroke-linecap="round" stroke-linejoin="round"/>
<path d="M109.479 158.466H115.224" stroke="#64BDFF" stroke-width="4" stroke-miterlimit="10" stroke-linecap="round" stroke-linejoin="round"/>
<path d="M79.6962 158.466H102.215" stroke="#FF5F5F" stroke-width="4" stroke-miterlimit="10" stroke-linecap="round" stroke-linejoin="round"/>
<path d="M61.4041 158.466H74.8095" stroke="#FFBE78" stroke-width="4" stroke-miterlimit="10" stroke-linecap="round" stroke-linejoin="round"/>
<path d="M54.14 158.466H54.8664" stroke="white" stroke-width="4" stroke-miterlimit="10" stroke-linecap="round" stroke-linejoin="round"/>
<path d="M95.2808 152.787H107.035" stroke="#FFBE78" stroke-width="4" stroke-miterlimit="10" stroke-linecap="round" stroke-linejoin="round"/>
<path d="M80.4886 152.787H89.6017" stroke="#6DBF7B" stroke-width="4" stroke-miterlimit="10" stroke-linecap="round" stroke-linejoin="round"/>
<path d="M70.5831 152.787H75.734" stroke="#FFBE78" stroke-width="4" stroke-miterlimit="10" stroke-linecap="round" stroke-linejoin="round"/>
<path d="M61.4041 152.787H65.6304" stroke="#6DBF7B" stroke-width="4" stroke-miterlimit="10" stroke-linecap="round" stroke-linejoin="round"/>
<path d="M54.14 152.787H54.8664" stroke="white" stroke-width="4" stroke-miterlimit="10" stroke-linecap="round" stroke-linejoin="round"/>
<path d="M57.838 142.419C58.7498 142.419 59.489 141.68 59.489 140.768C59.489 139.856 58.7498 139.117 57.838 139.117C56.9263 139.117 56.1871 139.856 56.1871 140.768C56.1871 141.68 56.9263 142.419 57.838 142.419Z" fill="#E7534E"/>
<path d="M63.7814 142.419C64.6932 142.419 65.4323 141.68 65.4323 140.768C65.4323 139.856 64.6932 139.117 63.7814 139.117C62.8696 139.117 62.1305 139.856 62.1305 140.768C62.1305 141.68 62.8696 142.419 63.7814 142.419Z" fill="#444E59"/>
<path d="M69.7907 142.419C70.7025 142.419 71.4416 141.68 71.4416 140.768C71.4416 139.856 70.7025 139.117 69.7907 139.117C68.8789 139.117 68.1398 139.856 68.1398 140.768C68.1398 141.68 68.8789 142.419 69.7907 142.419Z" fill="#444E59"/>
<path d="M167.921 151.862H108.752C105.847 151.862 103.469 149.485 103.469 146.579V93.1559C103.469 90.2503 105.847 87.873 108.752 87.873H167.921C170.827 87.873 173.204 90.2503 173.204 93.1559V146.579C173.204 149.485 170.827 151.862 167.921 151.862Z" fill="white"/>
<path d="M167.921 151.862H108.752C105.847 151.862 103.469 149.485 103.469 146.579V93.1559C103.469 90.2503 105.847 87.873 108.752 87.873H167.921C170.827 87.873 173.204 90.2503 173.204 93.1559V146.579C173.204 149.485 170.827 151.862 167.921 151.862Z" fill="white"/>
<path d="M167.921 151.862H108.752C105.847 151.862 103.469 149.485 103.469 146.579V93.1559C103.469 90.2503 105.847 87.873 108.752 87.873H167.921C170.827 87.873 173.204 90.2503 173.204 93.1559V146.579C173.204 149.485 170.827 151.862 167.921 151.862Z" stroke="#444E59" stroke-width="4" stroke-miterlimit="10" stroke-linecap="round" stroke-linejoin="round"/>
<path d="M166.798 93.288H109.479V131.391H166.798V93.288Z" fill="#9483C4"/>
<path d="M166.798 93.288H109.479V131.391H166.798V93.288Z" stroke="#444E59" stroke-width="4" stroke-miterlimit="10" stroke-linecap="round" stroke-linejoin="round"/>
<path d="M109.479 137.466H145.667" stroke="#444E59" stroke-width="4" stroke-miterlimit="10" stroke-linecap="round" stroke-linejoin="round"/>
<path d="M109.479 143.542H130.874" stroke="#444E59" stroke-width="4" stroke-miterlimit="10" stroke-linecap="round" stroke-linejoin="round"/>
<path d="M115.224 124.589L127.573 112.373L139.063 123.863" stroke="#444E59" stroke-width="4" stroke-miterlimit="10" stroke-linecap="round" stroke-linejoin="round"/>
<path d="M160.591 124.589L145.667 105.109L133.714 118.448" stroke="#444E59" stroke-width="4" stroke-miterlimit="10" stroke-linecap="round" stroke-linejoin="round"/>
<path d="M160.459 143.476C162.246 143.476 163.695 142.027 163.695 140.24C163.695 138.453 162.246 137.004 160.459 137.004C158.672 137.004 157.223 138.453 157.223 140.24C157.223 142.027 158.672 143.476 160.459 143.476Z" stroke="#444E59" stroke-width="4" stroke-miterlimit="10" stroke-linecap="round" stroke-linejoin="round"/>
<path d="M131.205 109.203C133.466 109.203 135.299 107.37 135.299 105.109C135.299 102.847 133.466 101.014 131.205 101.014C128.944 101.014 127.11 102.847 127.11 105.109C127.11 107.37 128.944 109.203 131.205 109.203Z" fill="#F09F54"/>
<path d="M131.205 109.203C133.466 109.203 135.299 107.37 135.299 105.109C135.299 102.847 133.466 101.014 131.205 101.014C128.944 101.014 127.11 102.847 127.11 105.109C127.11 107.37 128.944 109.203 131.205 109.203Z" stroke="#444E59" stroke-width="4" stroke-miterlimit="10" stroke-linecap="round" stroke-linejoin="round"/>
<path d="M102.347 69.0526H120.045" stroke="#444E59" stroke-width="4" stroke-miterlimit="10" stroke-linecap="round" stroke-linejoin="round"/>
<path d="M92.9036 69.0526H97.5921" stroke="#444E59" stroke-width="4" stroke-miterlimit="10" stroke-linecap="round" stroke-linejoin="round"/>
<path d="M111.196 60.864H120.044" stroke="#444E59" stroke-width="4" stroke-miterlimit="10" stroke-linecap="round" stroke-linejoin="round"/>
<path d="M104.064 60.864H106.705" stroke="#444E59" stroke-width="4" stroke-miterlimit="10" stroke-linecap="round" stroke-linejoin="round"/>
<path d="M83.1962 120.825H96.9978" stroke="#444E59" stroke-width="4" stroke-miterlimit="10" stroke-linecap="round" stroke-linejoin="round"/>
<path d="M75.8661 120.825H79.4981" stroke="#444E59" stroke-width="4" stroke-miterlimit="10" stroke-linecap="round" stroke-linejoin="round"/>
<path d="M91.3846 112.637H96.9977" stroke="#444E59" stroke-width="4" stroke-miterlimit="10" stroke-linecap="round" stroke-linejoin="round"/>
<path d="M84.5168 112.637H86.63" stroke="#444E59" stroke-width="4" stroke-miterlimit="10" stroke-linecap="round" stroke-linejoin="round"/>
<path d="M303.296 25.0062H316.371" stroke="#444E59" stroke-width="4" stroke-miterlimit="10" stroke-linecap="round" stroke-linejoin="round"/>
<path d="M295.239 25.0062H298.937" stroke="#444E59" stroke-width="4" stroke-miterlimit="10" stroke-linecap="round" stroke-linejoin="round"/>
<path d="M310.758 16.8177H316.371" stroke="#444E59" stroke-width="4" stroke-miterlimit="10" stroke-linecap="round" stroke-linejoin="round"/>
<path d="M303.956 16.8177H306.003" stroke="#444E59" stroke-width="4" stroke-miterlimit="10" stroke-linecap="round" stroke-linejoin="round"/>
<path d="M313.465 71.1657H261.825C258.655 71.1657 256.146 68.5903 256.146 65.4866V40.4587C256.146 37.289 258.721 34.7796 261.825 34.7796H313.465C316.635 34.7796 319.145 37.355 319.145 40.4587V65.4205C319.145 68.5903 316.635 71.1657 313.465 71.1657Z" fill="#2FA9ED"/>
<path d="M313.465 71.1657H261.825C258.655 71.1657 256.146 68.5903 256.146 65.4866V40.4587C256.146 37.289 258.721 34.7796 261.825 34.7796H313.465C316.635 34.7796 319.145 37.355 319.145 40.4587V65.4205C319.145 68.5903 316.635 71.1657 313.465 71.1657Z" stroke="#444E59" stroke-width="3" stroke-miterlimit="10" stroke-linecap="round" stroke-linejoin="round"/>
<path opacity="0.56" d="M287.645 44.553H309.966" stroke="white" stroke-width="3" stroke-miterlimit="10" stroke-linecap="round" stroke-linejoin="round"/>
<path opacity="0.56" d="M287.645 51.751H302.437" stroke="white" stroke-width="3" stroke-miterlimit="10" stroke-linecap="round" stroke-linejoin="round"/>
<g opacity="0.56">
<path d="M298.871 62.515H289.891C288.702 62.515 287.711 61.5244 287.711 60.3358C287.711 59.1471 288.702 58.1566 289.891 58.1566H298.871C300.06 58.1566 301.051 59.1471 301.051 60.3358C301.051 61.5244 300.126 62.515 298.871 62.515Z" fill="white"/>
<path d="M298.871 62.515H289.891C288.702 62.515 287.711 61.5244 287.711 60.3358C287.711 59.1471 288.702 58.1566 289.891 58.1566H298.871C300.06 58.1566 301.051 59.1471 301.051 60.3358C301.051 61.5244 300.126 62.515 298.871 62.515Z" stroke="white" stroke-width="3" stroke-miterlimit="10" stroke-linecap="round" stroke-linejoin="round"/>
</g>
<path d="M278.334 62.8451H266.513C264.797 62.8451 263.476 61.4584 263.476 59.8075V46.0058C263.476 44.2889 264.863 42.9681 266.513 42.9681H278.334C280.051 42.9681 281.372 44.3549 281.372 46.0058V59.8075C281.372 61.4584 280.051 62.8451 278.334 62.8451Z" stroke="white" stroke-width="3" stroke-miterlimit="10" stroke-linecap="round" stroke-linejoin="round"/>
<path d="M272.457 53.7981C274.207 53.7981 275.627 52.379 275.627 50.6284C275.627 48.8778 274.207 47.4586 272.457 47.4586C270.706 47.4586 269.287 48.8778 269.287 50.6284C269.287 52.379 270.706 53.7981 272.457 53.7981Z" stroke="white" stroke-width="3" stroke-miterlimit="10" stroke-linecap="round" stroke-linejoin="round"/>
<path d="M266.448 62.5149C266.448 59.2131 269.155 56.5056 272.457 56.5056C275.759 56.5056 278.466 59.2131 278.466 62.5149" stroke="white" stroke-width="3" stroke-miterlimit="10" stroke-linecap="round" stroke-linejoin="round"/>
</svg>
