<svg width="67" height="519" viewBox="0 0 67 519" fill="none" xmlns="http://www.w3.org/2000/svg">
<path d="M55.7 514.75H24.2C20.2 514.75 16.9 511.45 16.9 507.45V129.75H63V507.45C63 511.45 59.7999 514.75 55.7 514.75Z" fill="#543889" stroke="#543889" stroke-width="8" stroke-miterlimit="10" stroke-linecap="round" stroke-linejoin="round"/>
<path d="M54.5999 64.75H25.4L23.7 129.75H56.2L54.5999 64.75Z" fill="#543889" stroke="#543889" stroke-width="8" stroke-miterlimit="10" stroke-linecap="round" stroke-linejoin="round"/>
<path d="M46 57.75H34L25.4 64.75H54.5999L46 57.75Z" fill="#543889" stroke="#543889" stroke-width="8" stroke-miterlimit="10" stroke-linecap="round" stroke-linejoin="round"/>
<path d="M46.9 31.75H33V58.95H46.9V31.75Z" fill="#543889" stroke="#543889" stroke-width="8" stroke-miterlimit="10" stroke-linecap="round" stroke-linejoin="round"/>
<path d="M40 13.25V30.85" stroke="#543889" stroke-width="8" stroke-miterlimit="10" stroke-linecap="round" stroke-linejoin="round"/>
<path d="M43.5 506.75H12C7.99995 506.75 4.69995 503.45 4.69995 499.45V121.75H50.8V499.45C50.7 503.45 47.5 506.75 43.5 506.75Z" fill="#FFA124"/>
<path opacity="0.34" d="M43.5 506.75C39.5 506.75 36.2 503.45 36.2 499.45V121.75H50.7V499.45C50.7 503.45 47.5 506.75 43.5 506.75Z" fill="#3F4545"/>
<path opacity="0.78" d="M12.7 506.75H11.9C7.89998 506.75 4.59998 503.45 4.59998 499.45V121.75H19.9V499.45C20 503.45 16.7 506.75 12.7 506.75Z" fill="#3F4545"/>
<path d="M43.5 506.75H12C7.99995 506.75 4.69995 503.45 4.69995 499.45V121.75H50.8V499.45C50.7 503.45 47.5 506.75 43.5 506.75Z" stroke="#1F2120" stroke-width="8" stroke-miterlimit="10" stroke-linecap="round" stroke-linejoin="round"/>
<path d="M42.3 56.75H13.1L11.4 121.75H44L42.3 56.75Z" fill="#B5B4B4"/>
<path opacity="0.39" d="M42.3 56.75H32.2L33.9 121.75H44L42.3 56.75Z" fill="#B5B4B4"/>
<path opacity="0.5" d="M13.1 56.75L11.4 121.75H22.2L23.8 56.75H13.1Z" fill="white"/>
<path d="M42.3 56.75H13.1L11.4 121.75H44L42.3 56.75Z" stroke="#1F2120" stroke-width="8" stroke-miterlimit="10" stroke-linecap="round" stroke-linejoin="round"/>
<path d="M50.7 462.85H4.59998V482.85H50.7V462.85Z" fill="#FF1A1A"/>
<path opacity="0.63" d="M50.8 463.85H41.4V483.85H50.8V463.85Z" fill="#E02F2F"/>
<path d="M22.1 463.05H4.59998V483.05H22.1V463.05Z" fill="#EA4949"/>
<path d="M50.7 462.85H4.59998V482.85H50.7V462.85Z" stroke="#1F2120" stroke-width="8" stroke-miterlimit="10" stroke-linecap="round" stroke-linejoin="round"/>
<path d="M50.7 160.75H4.59998V180.75H50.7V160.75Z" fill="#E02F2F"/>
<path opacity="0.63" d="M50.8 160.75H41.4V180.75H50.8V160.75Z" fill="#E02F2F"/>
<path d="M22.1 160.75H4.59998V180.75H22.1V160.75Z" fill="#EA4949"/>
<path d="M50.7 160.75H4.59998V180.75H50.7V160.75Z" stroke="#1F2120" stroke-width="8" stroke-miterlimit="10" stroke-linecap="round" stroke-linejoin="round"/>
<path d="M33.7 49.75H21.7L13.1 56.75H42.3L33.7 49.75Z" stroke="#1F2120" stroke-width="8" stroke-miterlimit="10" stroke-linecap="round" stroke-linejoin="round"/>
<path d="M34.5999 23.75H20.7V50.95H34.5999V23.75Z" fill="#B5B4B4"/>
<path d="M34.5999 23.75H20.7V50.95H34.5999V23.75Z" stroke="#1F2120" stroke-width="8" stroke-miterlimit="10" stroke-linecap="round" stroke-linejoin="round"/>
<path d="M27.7 5.25V22.85" stroke="#1F2120" stroke-width="10" stroke-miterlimit="10" stroke-linecap="round" stroke-linejoin="round"/>
</svg>
